<svg id="Layer_2" data-name="Layer 2" xmlns="http://www.w3.org/2000/svg" viewBox="0 0 144 288"><title>arrow-left</title><path d="M110,37c-5.26,9.54-10.89,18.83-16.5,28.14S82.07,83.59,76.22,92.72s-11.81,18.2-17.83,27.22-12.13,18-18.28,26.9v-5.66l9.21,13.53,9.09,13.61c6,9.1,12,18.23,17.83,27.45s11.63,18.48,17.28,27.84S104.75,242.37,110,252c-7.09-8.37-13.79-17-20.53-25.61S76.23,209,69.75,200.23,56.9,182.58,50.58,173.68l-9.41-13.39-9.29-13.47-2-2.83,2-2.83q9.27-13.36,18.72-26.6T69.78,88.27c6.49-8.69,13-17.35,19.72-25.91S102.93,45.29,110,37Z"/></svg>