<svg id="Layer_2" data-name="Layer 2" xmlns="http://www.w3.org/2000/svg" viewBox="0 0 144 288"><title>arrow-right</title><path d="M36,37c7.07,8.29,13.78,16.84,20.5,25.36S69.73,79.58,76.22,88.27s12.85,17.48,19.17,26.29,12.54,17.69,18.72,26.6l2,2.83-2,2.83-9.29,13.47-9.41,13.39c-6.32,8.9-12.68,17.77-19.17,26.55s-13,17.52-19.72,26.16S43.09,243.63,36,252c5.25-9.63,10.87-19,16.47-28.39S63.9,205,69.75,195.77s11.82-18.35,17.83-27.45l9.09-13.61,9.21-13.53v5.66q-9.23-13.4-18.28-26.9T69.78,92.72Q61,79,52.5,65.14C46.89,55.83,41.26,46.54,36,37Z"/></svg>