<svg id="Layer_1" data-name="Layer 1" xmlns="http://www.w3.org/2000/svg" viewBox="0 0 430.44 430.44"><defs><style>.cls-1{fill:none;stroke:#000;stroke-miterlimit:10;stroke-width:10px;}</style></defs><title>factory</title><path class="cls-1" d="M76.72,71.72a5,5,0,0,0-5,5v278a5,5,0,0,0,5,5h277a5,5,0,0,0,5-5v-170c0-2.75-1.94-3.86-4.32-2.48L255,240.2c-2.37,1.39-4.32.27-4.32-2.48v-53c0-2.75-1.94-3.86-4.31-2.46L148,240.19c-2.37,1.39-4.31.28-4.31-2.47v-161a5,5,0,0,0-5-5Z"/><rect x="124.72" y="278.72" width="36" height="36" rx="5"/><rect x="196.72" y="277.72" width="36" height="36" rx="5"/><rect x="268.72" y="278.72" width="36" height="36" rx="5"/></svg>