<svg id="Layer_1" data-name="Layer 1" xmlns="http://www.w3.org/2000/svg" viewBox="0 0 432 432"><defs><style>.cls-1{fill:none;stroke:#000;stroke-miterlimit:10;stroke-width:10px;}</style></defs><title>house</title><path class="cls-1" d="M72,216,212.46,75.54a5,5,0,0,1,7.08,0L360,216"/><path class="cls-1" d="M315,171V113a5,5,0,0,0-5-5H293a5,5,0,0,0-5,5v31"/><path class="cls-1" d="M99,189V355a5,5,0,0,0,5,5H328a5,5,0,0,0,5-5V189"/><path class="cls-1" d="M180,360V221a5,5,0,0,1,5-5h62a5,5,0,0,1,5,5V360"/></svg>