<svg id="Layer_2" data-name="Layer 2" xmlns="http://www.w3.org/2000/svg" viewBox="0 0 287.21 287.21"><defs><style>.cls-1{fill:none;stroke:#fff;stroke-miterlimit:10;stroke-width:10px;}</style></defs><title>phone</title><path class="cls-1" d="M43.16,194.8l40-14.81a9,9,0,0,1,10.15,2.81l19.15,23.94a9,9,0,0,0,9.86,2.93c56.67-18.4,80.28-68.64,87-86.38A9,9,0,0,0,206.44,113l-24.24-19a9,9,0,0,1-2.87-10.27l15.44-40.71a9,9,0,0,1,10.59-5.54l39,9.76a9,9,0,0,1,6.78,9.51C248.33,90.62,226.13,225.34,53.62,251A5,5,0,0,1,48,247.23L37.56,205.42A9,9,0,0,1,43.16,194.8Z"/></svg>