<svg id="Layer_1" data-name="Layer 1" xmlns="http://www.w3.org/2000/svg" viewBox="0 0 433.67 433.67"><defs><style>.cls-1{fill:none;stroke:#000;stroke-miterlimit:10;stroke-width:10px;}</style></defs><title>store-front</title><path class="cls-1" d="M77.84,171.84c-2.75,0-3.68-1.82-2.06-4.05L141.9,76.88a11.07,11.07,0,0,1,7.94-4h134a11.09,11.09,0,0,1,7.94,4l66.12,90.91c1.61,2.23.69,4.05-2.06,4.05Z"/><path class="cls-1" d="M99.84,360.84v-184h0v71a5,5,0,0,0,5,5h143a5,5,0,0,0,5-5v-71h0v179a5,5,0,0,0,5,5h71a5,5,0,0,0,5-5v-184"/></svg>