<svg id="Layer_1" data-name="Layer 1" xmlns="http://www.w3.org/2000/svg" viewBox="0 0 360 360"><defs><style>.cls-1,.cls-2{fill:none;stroke:#000;stroke-miterlimit:10;}.cls-1{stroke-width:10px;}.cls-2{stroke-width:11px;}</style></defs><title>tractor</title><circle class="cls-1" cx="135.87" cy="223.88" r="58.09"/><path d="M121.65,165.78v-9.62a5,5,0,0,1,5-5H145.9a4.84,4.84,0,0,1,4.86,5l-.27,10"/><path class="cls-1" d="M121.65,165.78v-9.62a5,5,0,0,1,5-5H145.9a4.84,4.84,0,0,1,4.86,5l-.27,10"/><path d="M84.73,192.85,77.93,186a5,5,0,0,1,0-7.07l13.61-13.61a4.85,4.85,0,0,1,7,.1l6.91,7.28"/><path class="cls-1" d="M84.73,192.85,77.93,186a5,5,0,0,1,0-7.07l13.61-13.61a4.85,4.85,0,0,1,7,.1l6.91,7.28"/><path d="M77.77,238.09H68.15a5,5,0,0,1-5-5V213.84a4.85,4.85,0,0,1,5-4.86l10,.27"/><path class="cls-1" d="M77.77,238.09H68.15a5,5,0,0,1-5-5V213.84a4.85,4.85,0,0,1,5-4.86l10,.27"/><path d="M104.84,275l-6.8,6.8a5,5,0,0,1-7.08,0L77.35,268.2a4.85,4.85,0,0,1,.1-7l7.28-6.91"/><path class="cls-1" d="M104.84,275l-6.8,6.8a5,5,0,0,1-7.08,0L77.35,268.2a4.85,4.85,0,0,1,.1-7l7.28-6.91"/><path d="M150.08,282v9.62a5,5,0,0,1-5,5H125.83a4.85,4.85,0,0,1-4.86-5l.27-10"/><path class="cls-1" d="M150.08,282v9.62a5,5,0,0,1-5,5H125.83a4.85,4.85,0,0,1-4.86-5l.27-10"/><path d="M187,254.9l6.8,6.81a5,5,0,0,1,0,7.07l-13.61,13.61a4.85,4.85,0,0,1-7-.1l-6.9-7.28"/><path class="cls-1" d="M187,254.9l6.8,6.81a5,5,0,0,1,0,7.07l-13.61,13.61a4.85,4.85,0,0,1-7-.1l-6.9-7.28"/><path d="M194,209.66h9.62a5,5,0,0,1,5,5v19.25a4.84,4.84,0,0,1-5,4.86l-10-.27"/><path class="cls-1" d="M194,209.66h9.62a5,5,0,0,1,5,5v19.25a4.84,4.84,0,0,1-5,4.86l-10-.27"/><path d="M166.89,172.74l6.81-6.8a5,5,0,0,1,7.07,0l13.61,13.61a4.86,4.86,0,0,1-.09,7L187,193.43"/><path class="cls-1" d="M166.89,172.74l6.81-6.8a5,5,0,0,1,7.07,0l13.61,13.61a4.86,4.86,0,0,1-.09,7L187,193.43"/><circle class="cls-2" cx="260.18" cy="260.44" r="36.56"/><circle class="cls-1" cx="135.87" cy="223.88" r="29.25"/><line class="cls-1" x1="245.55" y1="227.7" x2="194.37" y2="227.7"/><path class="cls-1" d="M267.49,143.44V121.5s0-16.45,14.63-21.94v7.32s-7.32,7.31-7.32,14.62v21.94"/><path class="cls-1" d="M172.43,143.44H291.74a5,5,0,0,1,5,5V175a23.88,23.88,0,0,1-2.34,9.42l-21,39.46"/><path class="cls-1" d="M77.37,158.06V68a5,5,0,0,1,5-5h92.37a7.67,7.67,0,0,1,6.71,4.7L209,143.44"/><path class="cls-2" d="M60.5,180A87.76,87.76,0,0,1,224,224.28"/><circle class="cls-1" cx="260.18" cy="260.44" r="14.63"/></svg>