<svg id="Layer_2" data-name="Layer 2" xmlns="http://www.w3.org/2000/svg" viewBox="0 0 360 360"><defs><style>.cls-1{fill:none;}.cls-1,.cls-2{stroke:#fff;stroke-miterlimit:10;stroke-width:10px;}.cls-2{fill:#fff;}</style></defs><title>tractor-white</title><polyline class="cls-1" points="81 158 81 63 180 63 210 143"/><circle class="cls-1" cx="138" cy="224" r="26.22"/><circle class="cls-1" cx="138" cy="224" r="52.44"/><path class="cls-1" d="M64,179.53a86.51,86.51,0,0,1,161,44"/><circle class="cls-1" cx="261" cy="260" r="15"/><circle class="cls-1" cx="261" cy="260" r="36"/><polyline class="cls-2" points="124.84 173.23 125.34 158 151.56 158 151.56 171.56"/><polyline class="cls-2" points="92.79 197.41 82.38 186.28 100.92 167.74 110.51 177.33"/><polyline class="cls-2" points="87.23 237.16 72 236.66 72 210.44 85.56 210.44"/><polyline class="cls-2" points="111.41 269.21 100.28 279.62 81.74 261.08 91.33 251.49"/><polyline class="cls-2" points="151.16 274.77 150.66 290 124.44 290 124.44 276.44"/><polyline class="cls-2" points="183.21 250.59 193.62 261.72 175.08 280.26 165.49 270.67"/><polyline class="cls-2" points="188.77 210.84 204 211.34 204 237.56 190.44 237.56"/><polyline class="cls-2" points="164.59 178.79 175.72 168.38 194.26 186.92 184.67 196.51"/><polyline class="cls-1" points="171.29 143.44 297 143 297 180 272.92 226.03"/><line class="cls-1" x1="243.62" y1="228.47" x2="196" y2="228.47"/><path class="cls-1" d="M267.92,143.44V121.5s0-16.45,14.41-21.94v7.32s-7.2,7.31-7.2,14.62v21.94"/></svg>