<svg id="Layer_2" data-name="Layer 2" xmlns="http://www.w3.org/2000/svg" viewBox="0 0 360 360"><defs><style>.cls-1{fill:none;}.cls-1,.cls-2{stroke:#000;stroke-miterlimit:10;stroke-width:10px;}</style></defs><title>tractor</title><polyline class="cls-1" points="81 158 81 63 180 63 210 143"/><circle class="cls-1" cx="138" cy="224" r="29"/><circle class="cls-1" cx="138" cy="224" r="58"/><path class="cls-1" d="M64,179.53a86.51,86.51,0,0,1,161,44"/><circle class="cls-1" cx="261" cy="260" r="15"/><circle class="cls-1" cx="261" cy="260" r="36"/><polyline class="cls-2" points="123.44 167.84 124 151 153 151 153 166"/><polyline class="cls-2" points="88 194.59 76.48 182.28 96.99 161.78 107.59 172.38"/><polyline class="cls-2" points="81.84 238.56 65 238 65 209 80 209"/><polyline class="cls-2" points="108.58 274 96.28 285.52 75.78 265.01 86.38 254.41"/><polyline class="cls-2" points="152.56 280.16 152 297 123 297 123 282"/><polyline class="cls-2" points="188 253.41 199.52 265.72 179.01 286.23 168.41 275.62"/><polyline class="cls-2" points="194.16 209.44 211 210 211 239 196 239"/><polyline class="cls-2" points="167.41 174 179.72 162.48 200.22 182.99 189.62 193.59"/><polyline class="cls-1" points="171.29 143.44 297 143 297 180 272.92 226.03"/><line class="cls-1" x1="243.62" y1="228.47" x2="196" y2="228.47"/><path class="cls-1" d="M267.92,143.44V121.5s0-16.45,14.41-21.94v7.32s-7.2,7.31-7.2,14.62v21.94"/></svg>