<svg id="Layer_2" data-name="Layer 2" xmlns="http://www.w3.org/2000/svg" viewBox="0 0 560 187"><defs><style>.cls-1{opacity:0.73;}.cls-2{fill:#2e2d2f;}.cls-3{fill:#e8aa19;}.cls-4{fill:#136311;}</style></defs><title>we-logo</title><g class="cls-1"><path class="cls-2" d="M20,94.5c21.67-.34,43.33-.48,65-.73l65-.42c21.67-.18,43.33-.15,65-.21L280,93l65,.13c21.67.08,43.33,0,65,.22l65,.41c21.67.25,43.33.4,65,.74-21.67.34-43.33.49-65,.74l-65,.41c-21.67.19-43.33.14-65,.22L280,96l-65-.14c-21.67-.06-43.33,0-65-.21l-65-.42C63.33,95,41.67,94.84,20,94.5Z"/></g><rect class="cls-3" x="175" y="57.83" width="73.33" height="73.33" transform="translate(128.82 -121.99) rotate(45)"/><rect class="cls-3" x="313.33" y="57.83" width="73.33" height="73.33" transform="translate(169.33 -219.81) rotate(45)"/><rect class="cls-4" x="225.79" y="40.29" width="108.42" height="108.42" transform="translate(148.83 -170.31) rotate(45)"/></svg>