<svg xmlns="http://www.w3.org/2000/svg" xmlns:xlink="http://www.w3.org/1999/xlink" viewBox="0 0 648.09 108.02"><defs><style>.cls-1{fill:url(#New_Gradient_Swatch);}.cls-2{fill:#181617;}.cls-3{fill:url(#New_Gradient_Swatch-2);}</style><linearGradient id="New_Gradient_Swatch" x1="54.32" y1="0.55" x2="150.92" y2="67.17" gradientUnits="userSpaceOnUse"><stop offset="0" stop-color="#f9a469"/><stop offset="0.49" stop-color="#c87146"/><stop offset="1" stop-color="#874429"/></linearGradient><linearGradient id="New_Gradient_Swatch-2" x1="380.62" y1="-65.61" x2="483.03" y2="204.93" xlink:href="#New_Gradient_Swatch"/></defs><title>Asset 3</title><g id="Layer_2" data-name="Layer 2"><g id="Layer_1-2" data-name="Layer 1"><polygon class="cls-1" points="149.15 0 134.37 23.92 108.14 23.92 129.66 57.27 165.1 0 196.92 0 130.18 108.02 98.46 58.81 98.46 58.81 98.46 58.81 66.74 108.02 0 0 31.81 0 67.26 57.27 88.63 24.15 88.56 23.92 62.55 23.92 47.77 0 149.15 0"/><path class="cls-2" d="M263.45,0l7.72,29.18c.36,1.31.7,2.68,1,4.1s.63,3.06,1,4.91c.42-2.18.77-4,1.07-5.39s.58-2.62.86-3.62L282.28,0h16.89L281.81,61.37H266.3l-7.58-26.2q-.42-1.38-1.39-5.41c-.28-1.2-.5-2.14-.67-2.81l-.58,2.48q-1,4.07-1.47,5.74l-7.46,26.2H231.6L214.28,0h16.9l7,29.34c.33,1.51.66,3,1,4.53s.62,3.06.9,4.65c.26-1.17.53-2.4.82-3.69s.74-3.11,1.32-5.49L250,0Z"/><path class="cls-2" d="M303.91,61.37V0h14.67V19.2c0,1.51,0,2.91-.13,4.19a34.63,34.63,0,0,1-.38,3.48,19,19,0,0,1,6.63-7,17.75,17.75,0,0,1,9.09-2.22A19.11,19.11,0,0,1,341.11,19a13,13,0,0,1,5.22,3.79,13.19,13.19,0,0,1,2.39,5.2,43.84,43.84,0,0,1,.71,9.14V61.37h-15V38.69c0-3.38-.56-5.84-1.66-7.38s-2.87-2.3-5.3-2.3c-3.11,0-5.37,1.14-6.79,3.44s-2.14,6-2.14,11.15V61.37Z"/><path class="cls-2" d="M400.41,43.18h-32.2q0,4.91,2.52,7.56a9.07,9.07,0,0,0,7,2.67,11.77,11.77,0,0,0,5.72-1.28,8.33,8.33,0,0,0,3.54-3.8l11.24,4.53a14.63,14.63,0,0,1-7.13,7.5A27.09,27.09,0,0,1,378.57,63q-11.07,0-17.75-6.14t-6.69-16.2a22,22,0,0,1,6.69-16.43q6.68-6.54,16.91-6.54,10.51,0,16.6,6.62t6.08,18.15Zm-14.72-8.43A9.05,9.05,0,0,0,383,29a8,8,0,0,0-5.72-2.18,8.23,8.23,0,0,0-5.81,2,10.31,10.31,0,0,0-2.87,6Z"/><path class="cls-2" d="M405.94,61.37V0h15V61.37Z"/><path class="cls-2" d="M429,73.36V19h13.75v7.13a20,20,0,0,1,6.42-6.37,15.28,15.28,0,0,1,7.92-2.1q8.93,0,14.21,6.1t5.28,16.54q0,10.14-5.26,16.41A18.91,18.91,0,0,1,448.81,61a17.33,17.33,0,0,1-6-6.49c.13.84.24,1.86.31,3.06s.1,2.68.1,4.44V73.36Zm13.25-33a11.18,11.18,0,0,0,2.58,7.79,9.08,9.08,0,0,0,7.1,2.85A9.24,9.24,0,0,0,459,48.12a11.06,11.06,0,0,0,2.62-7.79,11.15,11.15,0,0,0-2.6-7.8,9.21,9.21,0,0,0-7.17-2.85,9.08,9.08,0,0,0-7.1,2.85A11.19,11.19,0,0,0,442.21,40.33Z"/><path class="cls-2" d="M488.58,61.37V14.5H474.83V0h44.22V14.5H505.3V61.37Z"/><path class="cls-2" d="M559.59,43.18H527.4q0,4.91,2.52,7.56a9.05,9.05,0,0,0,7,2.67,11.77,11.77,0,0,0,5.72-1.28,8.33,8.33,0,0,0,3.54-3.8l11.23,4.53a14.61,14.61,0,0,1-7.12,7.5A27.11,27.11,0,0,1,537.75,63Q526.69,63,520,56.86t-6.68-16.2A22,22,0,0,1,520,24.23q6.69-6.54,16.92-6.54,10.51,0,16.6,6.62t6.07,18.15Zm-14.71-8.43A9,9,0,0,0,542.13,29a8,8,0,0,0-5.72-2.18,8.2,8.2,0,0,0-5.8,2,10.31,10.31,0,0,0-2.87,6Z"/><path class="cls-2" d="M596.82,33a16.33,16.33,0,0,0-4.19-2.81,10.38,10.38,0,0,0-4.23-.88,9,9,0,0,0-7.07,2.93,11.53,11.53,0,0,0-2.62,8,10.81,10.81,0,0,0,2.73,7.75,9.58,9.58,0,0,0,7.33,2.9A10.09,10.09,0,0,0,593,49.9a12.46,12.46,0,0,0,3.79-2.78v13a22.74,22.74,0,0,1-5.36,2.22,21.31,21.31,0,0,1-5.54.71q-9.76,0-15.82-6.26T564,40.24q0-9.93,6.18-16.24t15.87-6.31a24.86,24.86,0,0,1,5.83.63,17.59,17.59,0,0,1,4.9,2Z"/><path class="cls-2" d="M602.57,61.37V0h14.67V19.2c0,1.51,0,2.91-.13,4.19s-.21,2.45-.37,3.48a18.88,18.88,0,0,1,6.62-7,17.76,17.76,0,0,1,9.1-2.22A19.09,19.09,0,0,1,639.77,19,13,13,0,0,1,645,22.8a13.19,13.19,0,0,1,2.39,5.2,43.84,43.84,0,0,1,.71,9.14V61.37h-15V38.69c0-3.38-.56-5.84-1.66-7.38s-2.87-2.3-5.3-2.3c-3.1,0-5.37,1.14-6.79,3.44s-2.14,6-2.14,11.15V61.37Z"/><path class="cls-3" d="M245.26,96v2.37H231.44v-19h13.44v2.37H234.16v5.85h9.55v2.31h-9.55V96Z"/><path class="cls-3" d="M255.65,79.34h2.72V96h10.31v2.37h-13Z"/><path class="cls-3" d="M291.61,96v2.37H277.79v-19h13.44v2.37H280.51v5.85h9.55v2.31h-9.55V96Z"/><path class="cls-3" d="M300.37,88.86c0-5.63,4.3-9.74,10.09-9.74a9.41,9.41,0,0,1,7.24,3l-1.77,1.71a7.06,7.06,0,0,0-5.36-2.26,7.32,7.32,0,1,0,0,14.64,7.07,7.07,0,0,0,5.36-2.28l1.77,1.71a9.44,9.44,0,0,1-7.26,3C304.67,98.6,300.37,94.5,300.37,88.86Z"/><path class="cls-3" d="M331.14,81.71h-6.53V79.34h15.75v2.37h-6.53V98.39h-2.69Z"/><path class="cls-3" d="M362,98.39l-4.11-5.85c-.38,0-.79,0-1.19,0H352v5.8h-2.72v-19h7.43c4.95,0,7.94,2.5,7.94,6.64a6,6,0,0,1-4.19,6l4.52,6.4ZM362,86c0-2.72-1.82-4.27-5.3-4.27H352v8.57h4.63C360.14,90.28,362,88.7,362,86Z"/><path class="cls-3" d="M375.07,79.34h2.72v19h-2.72Z"/><path class="cls-3" d="M387.94,88.86c0-5.63,4.3-9.74,10.09-9.74a9.41,9.41,0,0,1,7.24,3L403.5,83.8a7.06,7.06,0,0,0-5.36-2.26,7.32,7.32,0,1,0,0,14.64,7.07,7.07,0,0,0,5.36-2.28l1.77,1.71a9.45,9.45,0,0,1-7.27,3C392.24,98.6,387.94,94.5,387.94,88.86Z"/><path class="cls-3" d="M426.81,93.62H416.69l-2.09,4.77h-2.8l8.62-19h2.69l8.66,19h-2.86Zm-.95-2.17-4.11-9.34-4.11,9.34Z"/><path class="cls-3" d="M440.49,79.34h2.72V96h10.31v2.37h-13Z"/><path class="cls-3" d="M471.35,96.21l1-2.12a9.82,9.82,0,0,0,6.29,2.2c3.29,0,4.71-1.28,4.71-2.94,0-4.65-11.54-1.71-11.54-8.79,0-2.93,2.29-5.44,7.29-5.44a11.17,11.17,0,0,1,6.12,1.69L484.33,83a9.78,9.78,0,0,0-5.23-1.56c-3.24,0-4.62,1.37-4.62,3,0,4.65,11.53,1.74,11.53,8.73,0,2.91-2.34,5.41-7.37,5.41A11.32,11.32,0,0,1,471.35,96.21Z"/><path class="cls-3" d="M509.79,96v2.37H496v-19h13.44v2.37H498.69v5.85h9.55v2.31h-9.55V96Z"/><path class="cls-3" d="M532.91,98.39l-4.11-5.85c-.38,0-.79,0-1.19,0H522.9v5.8h-2.72v-19h7.43c4.95,0,7.94,2.5,7.94,6.64a6,6,0,0,1-4.19,6l4.52,6.4ZM532.83,86c0-2.72-1.82-4.27-5.31-4.27H522.9v8.57h4.62C531,90.28,532.83,88.7,532.83,86Z"/><path class="cls-3" d="M562.48,79.34l-8.35,19h-2.7l-8.38-19H546L552.85,95l6.91-15.64Z"/><path class="cls-3" d="M570.88,79.34h2.73v19h-2.73Z"/><path class="cls-3" d="M583.75,88.86c0-5.63,4.3-9.74,10.1-9.74a9.41,9.41,0,0,1,7.23,3l-1.76,1.71A7.07,7.07,0,0,0,594,81.54a7.32,7.32,0,1,0,0,14.64,7.09,7.09,0,0,0,5.36-2.28l1.76,1.71a9.44,9.44,0,0,1-7.26,3C588.05,98.6,583.75,94.5,583.75,88.86Z"/><path class="cls-3" d="M624.78,96v2.37H611v-19H624.4v2.37H613.68v5.85h9.55v2.31h-9.55V96Z"/><path class="cls-3" d="M633.43,96.21l1-2.12a9.82,9.82,0,0,0,6.29,2.2c3.29,0,4.7-1.28,4.7-2.94,0-4.65-11.53-1.71-11.53-8.79,0-2.93,2.28-5.44,7.29-5.44a11.19,11.19,0,0,1,6.12,1.69L646.4,83a9.75,9.75,0,0,0-5.22-1.56c-3.24,0-4.62,1.37-4.62,3,0,4.65,11.53,1.74,11.53,8.73,0,2.91-2.34,5.41-7.37,5.41A11.32,11.32,0,0,1,633.43,96.21Z"/></g></g></svg>