<svg xmlns="http://www.w3.org/2000/svg" xmlns:xlink="http://www.w3.org/1999/xlink" viewBox="0 0 498.41 262.11"><defs><style>.cls-1{fill:url(#linear-gradient);}.cls-2{fill:#181617;}.cls-3{fill:url(#New_Gradient_Swatch);}</style><linearGradient id="linear-gradient" x1="198.49" y1="0.64" x2="309.47" y2="77.18" gradientUnits="userSpaceOnUse"><stop offset="0" stop-color="#f9a469"/><stop offset="0.49" stop-color="#c87146"/><stop offset="1" stop-color="#874429"/></linearGradient><linearGradient id="New_Gradient_Swatch" x1="502.76" y1="73.44" x2="620.42" y2="384.28" gradientTransform="translate(-311.65)" xlink:href="#linear-gradient"/></defs><title>Asset 1</title><g id="Layer_2" data-name="Layer 2"><g id="Layer_1-2" data-name="Layer 1"><polygon class="cls-1" points="307.45 0 290.47 27.48 260.33 27.48 285.05 65.8 325.78 0 362.33 0 285.65 124.11 249.21 67.57 249.21 67.57 249.21 67.57 212.76 124.11 136.08 0 172.63 0 213.36 65.8 237.91 27.75 237.84 27.48 207.94 27.48 190.96 0 307.45 0"/><path class="cls-2" d="M56.49,148.82l8.87,33.52c.41,1.51.8,3.09,1.15,4.72s.72,3.52,1.11,5.64q.72-3.76,1.23-6.19c.33-1.62.66-3,1-4.17l8.29-33.52H97.53L77.59,219.33H59.77l-8.72-30.1q-.48-1.59-1.59-6.21c-.32-1.38-.58-2.46-.77-3.23L48,182.63q-1.11,4.68-1.69,6.6l-8.57,30.1H19.89L0,148.82H19.41l8.09,33.72c.39,1.73.76,3.46,1.13,5.2s.72,3.51,1,5.34c.29-1.35.6-2.76.94-4.24s.84-3.57,1.51-6.3L41,148.82Z"/><path class="cls-2" d="M103,219.33V148.82h16.86v22.06c0,1.73,0,3.34-.15,4.82s-.24,2.81-.43,4a21.85,21.85,0,0,1,7.61-8,20.41,20.41,0,0,1,10.45-2.55,21.92,21.92,0,0,1,8.4,1.51,15,15,0,0,1,6,4.36,15.22,15.22,0,0,1,2.75,6,50.49,50.49,0,0,1,.81,10.5v27.84H138.08V193.28c0-3.89-.64-6.71-1.9-8.48s-3.3-2.65-6.09-2.65q-5.36,0-7.81,3.95t-2.45,12.81v20.42Z"/><path class="cls-2" d="M213.84,198.43h-37c0,3.76,1,6.65,2.89,8.69s4.58,3.06,8,3.06a13.46,13.46,0,0,0,6.57-1.47,9.58,9.58,0,0,0,4.07-4.36l12.91,5.2a16.82,16.82,0,0,1-8.19,8.63,31.16,31.16,0,0,1-14.4,3q-12.72,0-20.4-7.06t-7.68-18.61a25.31,25.31,0,0,1,7.68-18.88q7.68-7.51,19.44-7.51,12.09,0,19.07,7.61t7,20.85Zm-16.9-9.68a10.39,10.39,0,0,0-3.16-6.65,9.24,9.24,0,0,0-6.57-2.5,9.43,9.43,0,0,0-6.67,2.29,11.84,11.84,0,0,0-3.3,6.86Z"/><path class="cls-2" d="M220.2,219.33V148.82h17.2v70.51Z"/><path class="cls-2" d="M246.65,233.11V170.69h15.8v8.19a23.11,23.11,0,0,1,7.36-7.33,17.69,17.69,0,0,1,9.11-2.4q10.26,0,16.32,7t6.07,19q0,11.65-6,18.86a19.61,19.61,0,0,1-15.77,7.2A19.86,19.86,0,0,1,269.45,219a20.1,20.1,0,0,1-6.91-7.47,33.89,33.89,0,0,1,.36,3.52q.12,2.07.12,5.1v13Zm15.22-38q0,5.68,3,9a10.43,10.43,0,0,0,8.16,3.28,10.57,10.57,0,0,0,8.21-3.28q3-3.27,3-9c0-3.78-1-6.77-3-9a10.57,10.57,0,0,0-8.24-3.28,10.43,10.43,0,0,0-8.16,3.28C262.86,188.38,261.87,191.37,261.87,195.15Z"/><path class="cls-2" d="M315.14,219.33V165.49H299.35V148.82h50.81v16.67h-15.8v53.84Z"/><path class="cls-2" d="M396.73,198.43h-37c0,3.76,1,6.65,2.89,8.69s4.57,3.06,8,3.06a13.46,13.46,0,0,0,6.57-1.47,9.52,9.52,0,0,0,4.07-4.36l12.91,5.2a16.82,16.82,0,0,1-8.19,8.63,31.11,31.11,0,0,1-14.4,3q-12.7,0-20.39-7.06t-7.69-18.61a25.28,25.28,0,0,1,7.69-18.88q7.68-7.51,19.43-7.51,12.09,0,19.07,7.61t7,20.85Zm-16.9-9.68a10.43,10.43,0,0,0-3.15-6.65,9.28,9.28,0,0,0-6.58-2.5,9.43,9.43,0,0,0-6.67,2.29,11.9,11.9,0,0,0-3.3,6.86Z"/><path class="cls-2" d="M439.51,186.68a19.14,19.14,0,0,0-4.82-3.23,12.07,12.07,0,0,0-4.87-1,10.32,10.32,0,0,0-8.11,3.37q-3,3.38-3,9.15a12.43,12.43,0,0,0,3.13,8.91,11,11,0,0,0,8.43,3.32,11.75,11.75,0,0,0,4.89-1,14.4,14.4,0,0,0,4.36-3.2v14.88a26.88,26.88,0,0,1-6.17,2.55,24.49,24.49,0,0,1-6.36.82q-11.22,0-18.18-7.2t-7-18.95q0-11.42,7.11-18.66t18.23-7.25a28.58,28.58,0,0,1,6.69.72,20.08,20.08,0,0,1,5.64,2.31Z"/><path class="cls-2" d="M446.11,219.33V148.82H463v22.06c0,1.73,0,3.34-.14,4.82s-.24,2.81-.43,4a21.83,21.83,0,0,1,7.6-8,20.47,20.47,0,0,1,10.46-2.55,22,22,0,0,1,8.4,1.51A13.81,13.81,0,0,1,497.59,181a49.67,49.67,0,0,1,.82,10.5v27.84H481.22V193.28c0-3.89-.64-6.71-1.91-8.48s-3.29-2.65-6.09-2.65q-5.34,0-7.8,3.95T463,198.91v20.42Z"/><path class="cls-3" d="M35.59,259.14v2.72H19.71V240H35.15v2.72H22.83v6.72h11v2.65h-11v7.07Z"/><path class="cls-3" d="M47.52,240h3.13v19.16H62.5v2.72h-15Z"/><path class="cls-3" d="M88.85,259.14v2.72H73V240H88.41v2.72H76.09v6.72h11v2.65h-11v7.07Z"/><path class="cls-3" d="M98.91,250.92c0-6.47,4.94-11.19,11.59-11.19a10.79,10.79,0,0,1,8.32,3.41l-2,2a8.11,8.11,0,0,0-6.16-2.59,8.41,8.41,0,1,0,0,16.82,8.15,8.15,0,0,0,6.16-2.63l2,2a10.86,10.86,0,0,1-8.35,3.44C103.85,262.11,98.91,257.39,98.91,250.92Z"/><path class="cls-3" d="M134.26,242.7h-7.51V240h18.1v2.72h-7.5v19.16h-3.09Z"/><path class="cls-3" d="M169.76,261.86,165,255.14c-.43,0-.9.06-1.37.06h-5.41v6.66h-3.13V240h8.54c5.69,0,9.13,2.87,9.13,7.63a6.91,6.91,0,0,1-4.82,6.9l5.19,7.35Zm-.09-14.25c0-3.13-2.09-4.91-6.1-4.91h-5.31v9.85h5.31C167.58,252.55,169.67,250.73,169.67,247.61Z"/><path class="cls-3" d="M184.73,240h3.13v21.88h-3.13Z"/><path class="cls-3" d="M199.51,250.92c0-6.47,4.94-11.19,11.6-11.19a10.79,10.79,0,0,1,8.32,3.41l-2,2a8.13,8.13,0,0,0-6.16-2.59,8.41,8.41,0,1,0,0,16.82,8.16,8.16,0,0,0,6.16-2.63l2,2a10.86,10.86,0,0,1-8.35,3.44C204.45,262.11,199.51,257.39,199.51,250.92Z"/><path class="cls-3" d="M244.18,256.39H232.55l-2.41,5.47h-3.21l9.9-21.88h3.1l9.94,21.88h-3.28Zm-1.09-2.5-4.72-10.72-4.72,10.72Z"/><path class="cls-3" d="M259.89,240H263v19.16h11.85v2.72h-15Z"/><path class="cls-3" d="M295.35,259.36l1.15-2.44a11.27,11.27,0,0,0,7.22,2.53c3.79,0,5.41-1.47,5.41-3.37,0-5.35-13.25-2-13.25-10.1,0-3.38,2.62-6.25,8.38-6.25a12.87,12.87,0,0,1,7,1.94l-1,2.5a11.33,11.33,0,0,0-6-1.79c-3.73,0-5.32,1.57-5.32,3.47,0,5.35,13.26,2,13.26,10,0,3.34-2.69,6.22-8.48,6.22C300.38,262.11,297.1,261,295.35,259.36Z"/><path class="cls-3" d="M339.51,259.14v2.72H323.63V240h15.44v2.72H326.76v6.72h11v2.65h-11v7.07Z"/><path class="cls-3" d="M366.08,261.86l-4.72-6.72c-.44,0-.91.06-1.38.06h-5.41v6.66h-3.12V240H360c5.69,0,9.13,2.87,9.13,7.63a6.9,6.9,0,0,1-4.81,6.9l5.18,7.35Zm-.1-14.25c0-3.13-2.09-4.91-6.09-4.91h-5.32v9.85h5.32C363.89,252.55,366,250.73,366,247.61Z"/><path class="cls-3" d="M400.05,240l-9.6,21.88h-3.09L377.73,240h3.38L389,258l7.94-18Z"/><path class="cls-3" d="M409.71,240h3.12v21.88h-3.12Z"/><path class="cls-3" d="M424.49,250.92c0-6.47,4.94-11.19,11.6-11.19a10.78,10.78,0,0,1,8.31,3.41l-2,2a8.11,8.11,0,0,0-6.16-2.59,8.41,8.41,0,1,0,0,16.82,8.15,8.15,0,0,0,6.16-2.63l2,2a10.86,10.86,0,0,1-8.34,3.44C429.43,262.11,424.49,257.39,424.49,250.92Z"/><path class="cls-3" d="M471.62,259.14v2.72H455.74V240h15.45v2.72H458.87v6.72h11v2.65h-11v7.07Z"/><path class="cls-3" d="M481.56,259.36l1.16-2.44a11.23,11.23,0,0,0,7.22,2.53c3.78,0,5.41-1.47,5.41-3.37,0-5.35-13.26-2-13.26-10.1,0-3.38,2.63-6.25,8.38-6.25a12.87,12.87,0,0,1,7,1.94l-1,2.5a11.3,11.3,0,0,0-6-1.79c-3.72,0-5.31,1.57-5.31,3.47,0,5.35,13.25,2,13.25,10,0,3.34-2.69,6.22-8.47,6.22C486.59,262.11,483.31,261,481.56,259.36Z"/></g></g></svg>